<?xml version="1.0" encoding="UTF-8" standalone="no"?>
<!DOCTYPE svg PUBLIC "-//W3C//DTD SVG 1.1//EN" "http://www.w3.org/Graphics/SVG/1.1/DTD/svg11.dtd">
<svg width="100%" height="100%" viewBox="0 0 414 362" version="1.1" xmlns="http://www.w3.org/2000/svg" xmlns:xlink="http://www.w3.org/1999/xlink" xml:space="preserve" xmlns:serif="http://www.serif.com/" style="fill-rule:evenodd;clip-rule:evenodd;stroke-linejoin:round;stroke-miterlimit:2;">
    <g transform="matrix(1,0,0,1,-1178.33,-243)">
        <path d="M1302.43,243C1302.43,243 1128.69,367.1 1261.06,565.65L1285.88,499.46L1352.07,350.54L1426.53,267.81L1434.8,276.08L1360.34,358.81L1294.15,507.73L1343.79,557.37L1500.98,491.18L1583.71,416.72L1591.98,424.99L1509.25,499.45L1294.15,590.45L1259.16,605C1259.16,605 1178.33,565.65 1178.33,449.83C1178.33,334.01 1269.33,243 1302.43,243C1335.53,243 1302.43,243 1302.43,243Z" style="fill:rgb(81,191,166);fill-rule:nonzero;"/>
    </g>
    <g transform="matrix(1,0,0,1,-1178.33,-243)">
        <path d="M1385.13,412.39L1464.69,322.89L1474.63,332.83L1395.07,422.34L1385.13,414.93L1385.13,412.39Z" style="fill:rgb(81,191,166);fill-rule:nonzero;"/>
    </g>
    <g transform="matrix(1,0,0,1,-1178.33,-243)">
        <path d="M1443.47,462.78L1523.03,373.27L1532.98,383.22L1453.42,472.73L1443.47,465.32L1443.47,462.78Z" style="fill:rgb(81,191,166);fill-rule:nonzero;"/>
    </g>
</svg>
