<?xml version="1.0" encoding="UTF-8" standalone="no"?>
<!DOCTYPE svg PUBLIC "-//W3C//DTD SVG 1.1//EN" "http://www.w3.org/Graphics/SVG/1.1/DTD/svg11.dtd">
<svg width="100%" height="100%" viewBox="0 0 364 362" version="1.1" xmlns="http://www.w3.org/2000/svg" xmlns:xlink="http://www.w3.org/1999/xlink" xml:space="preserve" xmlns:serif="http://www.serif.com/" style="fill-rule:evenodd;clip-rule:evenodd;stroke-linejoin:round;stroke-miterlimit:2;">
    <g transform="matrix(1,0,0,1,-298.628,-242.998)">
        <g>
            <path d="M641.07,338.52C649.59,355.21 656.08,372.78 659.25,391.42C665.26,426.72 662.32,461.21 647.74,493.95C620.39,555.33 573.02,592.84 506.74,602.45C404.95,617.21 324.04,550.13 304.58,467.66C287.58,395.63 307.02,333.98 362.57,284.78C384.61,265.26 410.51,252.52 439.75,246.39C450.59,242.82 516.54,240.88 518.48,246.7C518.48,250.58 498.72,293.91 491.9,309.5C481.8,332.57 470.94,355.31 460.44,378.21C459.08,381.17 457.59,384.04 455.08,386.19C448.93,391.45 439.84,391.82 433.49,387.12C427.1,382.4 424.77,374.14 428.3,366.52C439.3,342.78 450.53,319.15 461.66,295.47C463.44,291.68 465.3,287.92 466.9,284.05C469.67,277.36 467.94,275.15 460.52,276.01C444.98,277.82 430.12,282.4 416.3,289.46C373.72,311.21 346.68,345.67 336.66,392.37C322.11,460.2 359.29,529.88 423.53,557.17C504.73,591.67 597.86,546.98 622.19,461.94C633.87,421.12 627.68,382.66 607.43,345.96C606.81,344.84 606.02,343.8 605.25,342.77C600.06,335.78 599.03,335.88 595.39,343.8C583.81,369.02 572.25,394.25 560.67,419.48C559.86,421.24 559.02,422.99 558.13,424.71C552.81,435 543.32,438.84 534.16,434.42C525.69,430.34 522.57,420.65 527.06,410.22C532.16,398.36 537.76,386.71 543.3,375.04C552.99,354.62 563.01,334.35 572.43,313.81C575.25,307.66 588.68,272.24 592.2,273.85C594.91,275.1 634.86,320.41 641.07,338.52Z" style="fill:white;fill-rule:nonzero;"/>
            <path d="M492.69,414.56C481.35,414.52 472.76,404.14 475.05,392.92C475.69,389.8 476.97,386.76 478.33,383.86C497.61,342.64 516.95,301.45 536.31,260.27C541.21,249.84 541.29,249.83 551.84,254.31C555.7,255.95 559.5,257.74 563.25,259.6C573.79,264.82 573.82,264.87 569.02,275.28C555.63,304.29 542.19,333.27 528.77,362.26C522.53,375.73 516.43,389.26 510,402.64C506.03,410.88 500.25,414.58 492.69,414.56Z" style="fill:white;fill-rule:nonzero;"/>
            <path d="M420.11,404.23C419.81,401.69 420.51,399.55 423.24,399.1C426.43,398.58 428.02,400.82 428.63,403.48C431.26,414.8 433.75,426.15 436.26,437.49C437.16,441.59 438.07,445.69 438.77,449.82C440.32,458.94 441.65,467.52 454.54,466.89C459.38,466.65 464.38,470.33 467.68,474.42C471.37,479.01 474.72,478.37 479.32,475.83C493.44,468.03 507.8,460.64 522.07,453.1C523.78,452.2 525.5,451.3 527.24,450.45C530.33,448.94 533.77,447.78 535.44,451.88C536.92,455.5 533.48,456.88 530.96,458.22C504.2,472.53 477.45,486.86 450.61,501.03C443.61,504.73 441.06,503.31 439.33,495.16C433.91,469.59 428.61,443.99 423.24,418.4C422.25,413.67 421.15,408.95 420.11,404.23Z" style="fill:white;fill-rule:nonzero;"/>
        </g>
    </g>
</svg>
